<svg width="20" height="20" viewBox="0 0 20 20" fill="none" xmlns="http://www.w3.org/2000/svg">
<path d="M4.47642 20C4.2573 20 4.0397 19.9287 3.854 19.7885C3.50807 19.5269 3.34648 19.0773 3.44063 18.6434L4.72728 12.7292L0.36377 8.73605C0.0430226 8.44386 -0.0795084 7.98115 0.0521782 7.55776C0.183865 7.13517 0.54215 6.83598 0.966355 6.79506L6.73981 6.24811L9.02243 0.674012C9.19074 0.264478 9.57405 0 9.99993 0C10.4258 0 10.8091 0.264478 10.9774 0.673057L13.2601 6.24811L19.0326 6.79506C19.4577 6.83502 19.816 7.13517 19.9477 7.55776C20.0794 7.98035 19.9576 8.44386 19.6369 8.73605L15.2733 12.7284L16.56 18.6424C16.6543 19.0773 16.4926 19.5269 16.1468 19.7877C15.8018 20.0486 15.3417 20.0686 14.9784 19.8408L9.99993 16.7363L5.02148 19.8425C4.85317 19.9468 4.66563 20 4.47642 20ZM9.99993 15.3989C10.1891 15.3989 10.3765 15.452 10.545 15.5563L15.2434 18.4886L14.0291 12.9065C13.9424 12.5093 14.0717 12.0945 14.3659 11.8257L18.486 8.05519L13.035 7.53865C12.6425 7.50123 12.305 7.24376 12.1516 6.86639L9.99993 1.60613L7.84564 6.86719C7.69397 7.24201 7.35643 7.49948 6.96488 7.5369L1.51309 8.05344L5.63306 11.824C5.92818 12.0935 6.05727 12.5075 5.96983 12.9058L4.75643 18.4877L9.45487 15.5563C9.62318 15.452 9.81072 15.3989 9.99993 15.3989ZM6.69571 6.35591C6.69571 6.35591 6.69571 6.35686 6.6948 6.35766L6.69571 6.35591ZM13.3025 6.35336L13.3034 6.35511C13.3034 6.35416 13.3034 6.35416 13.3025 6.35336Z" fill="black"/>
</svg>